<mxfile host="app.diagrams.net" modified="2023-03-20T03:01:38.627Z" agent="5.0 (Macintosh; Intel Mac OS X 10_15_7) AppleWebKit/537.36 (KHTML, like Gecko) Chrome/111.0.0.0 Safari/537.36" etag="anvBHbcnUEhRkUTdsuzB" version="21.0.6" type="github" pages="2">
  <diagram id="C5RBs43oDa-KdzZeNtuy" name="Page-1">
    <mxGraphModel dx="1434" dy="686" grid="1" gridSize="10" guides="1" tooltips="1" connect="1" arrows="1" fold="1" page="1" pageScale="1" pageWidth="827" pageHeight="1169" math="0" shadow="0">
      <root>
        <mxCell id="WIyWlLk6GJQsqaUBKTNV-0" />
        <mxCell id="WIyWlLk6GJQsqaUBKTNV-1" parent="WIyWlLk6GJQsqaUBKTNV-0" />
        <mxCell id="siAdTkyfHeQNk--nSfNy-4" value="主分支" style="swimlane;startSize=0;" parent="WIyWlLk6GJQsqaUBKTNV-1" vertex="1">
          <mxGeometry x="99" y="20" width="630" height="110" as="geometry">
            <mxRectangle x="99" y="20" width="80" height="30" as="alternateBounds" />
          </mxGeometry>
        </mxCell>
        <mxCell id="siAdTkyfHeQNk--nSfNy-5" value="开发" style="text;html=1;align=center;verticalAlign=middle;resizable=0;points=[];autosize=1;strokeColor=none;fillColor=none;" parent="siAdTkyfHeQNk--nSfNy-4" vertex="1">
          <mxGeometry x="30" width="50" height="30" as="geometry" />
        </mxCell>
        <mxCell id="siAdTkyfHeQNk--nSfNy-6" value="测试" style="text;html=1;align=center;verticalAlign=middle;resizable=0;points=[];autosize=1;strokeColor=none;fillColor=none;" parent="siAdTkyfHeQNk--nSfNy-4" vertex="1">
          <mxGeometry x="180" width="50" height="30" as="geometry" />
        </mxCell>
        <mxCell id="siAdTkyfHeQNk--nSfNy-7" value="产品" style="text;html=1;align=center;verticalAlign=middle;resizable=0;points=[];autosize=1;strokeColor=none;fillColor=none;" parent="siAdTkyfHeQNk--nSfNy-4" vertex="1">
          <mxGeometry x="331" width="50" height="30" as="geometry" />
        </mxCell>
        <mxCell id="siAdTkyfHeQNk--nSfNy-8" value="线上" style="text;html=1;align=center;verticalAlign=middle;resizable=0;points=[];autosize=1;strokeColor=none;fillColor=none;" parent="siAdTkyfHeQNk--nSfNy-4" vertex="1">
          <mxGeometry x="481" width="50" height="30" as="geometry" />
        </mxCell>
        <mxCell id="siAdTkyfHeQNk--nSfNy-3" value="release" style="rounded=0;whiteSpace=wrap;html=1;fillColor=#e1d5e7;strokeColor=#9673a6;" parent="siAdTkyfHeQNk--nSfNy-4" vertex="1">
          <mxGeometry x="480" y="40" width="120" height="60" as="geometry" />
        </mxCell>
        <mxCell id="siAdTkyfHeQNk--nSfNy-2" value="uat" style="rounded=0;whiteSpace=wrap;html=1;fillColor=#ffe6cc;strokeColor=#d79b00;" parent="siAdTkyfHeQNk--nSfNy-4" vertex="1">
          <mxGeometry x="334" y="40" width="120" height="60" as="geometry" />
        </mxCell>
        <mxCell id="siAdTkyfHeQNk--nSfNy-1" value="test" style="rounded=0;whiteSpace=wrap;html=1;fillColor=#fff2cc;strokeColor=#d6b656;" parent="siAdTkyfHeQNk--nSfNy-4" vertex="1">
          <mxGeometry x="180" y="40" width="120" height="60" as="geometry" />
        </mxCell>
        <mxCell id="siAdTkyfHeQNk--nSfNy-0" value="dev" style="rounded=0;whiteSpace=wrap;html=1;fillColor=#d5e8d4;strokeColor=#82b366;" parent="siAdTkyfHeQNk--nSfNy-4" vertex="1">
          <mxGeometry x="30" y="40" width="120" height="60" as="geometry" />
        </mxCell>
        <mxCell id="siAdTkyfHeQNk--nSfNy-9" value="feature" style="rounded=0;whiteSpace=wrap;html=1;fillColor=#dae8fc;strokeColor=#6c8ebf;" parent="WIyWlLk6GJQsqaUBKTNV-1" vertex="1">
          <mxGeometry x="129" y="150" width="120" height="60" as="geometry" />
        </mxCell>
        <mxCell id="siAdTkyfHeQNk--nSfNy-10" value="hotfix" style="rounded=0;whiteSpace=wrap;html=1;fillColor=#f8cecc;strokeColor=#b85450;" parent="WIyWlLk6GJQsqaUBKTNV-1" vertex="1">
          <mxGeometry x="129" y="230" width="120" height="60" as="geometry" />
        </mxCell>
        <mxCell id="siAdTkyfHeQNk--nSfNy-11" value="" style="ellipse;whiteSpace=wrap;html=1;aspect=fixed;fillColor=#e1d5e7;strokeColor=#9673a6;" parent="WIyWlLk6GJQsqaUBKTNV-1" vertex="1">
          <mxGeometry x="60" y="340" width="20" height="20" as="geometry" />
        </mxCell>
        <mxCell id="siAdTkyfHeQNk--nSfNy-14" value="" style="endArrow=none;html=1;rounded=0;exitX=1;exitY=0.5;exitDx=0;exitDy=0;edgeStyle=orthogonalEdgeStyle;entryX=0;entryY=0.5;entryDx=0;entryDy=0;strokeWidth=4;startArrow=none;" parent="WIyWlLk6GJQsqaUBKTNV-1" source="siAdTkyfHeQNk--nSfNy-106" target="siAdTkyfHeQNk--nSfNy-16" edge="1">
          <mxGeometry width="50" height="50" relative="1" as="geometry">
            <mxPoint x="390" y="410" as="sourcePoint" />
            <mxPoint x="720" y="350" as="targetPoint" />
            <Array as="points">
              <mxPoint x="240" y="350" />
            </Array>
          </mxGeometry>
        </mxCell>
        <mxCell id="siAdTkyfHeQNk--nSfNy-16" value="" style="ellipse;whiteSpace=wrap;html=1;aspect=fixed;fillColor=#e1d5e7;strokeColor=#9673a6;" parent="WIyWlLk6GJQsqaUBKTNV-1" vertex="1">
          <mxGeometry x="720" y="340" width="20" height="20" as="geometry" />
        </mxCell>
        <mxCell id="siAdTkyfHeQNk--nSfNy-20" value="" style="ellipse;whiteSpace=wrap;html=1;aspect=fixed;fillColor=#f8cecc;strokeColor=#b85450;" parent="WIyWlLk6GJQsqaUBKTNV-1" vertex="1">
          <mxGeometry x="449" y="400" width="20" height="20" as="geometry" />
        </mxCell>
        <mxCell id="siAdTkyfHeQNk--nSfNy-26" value="" style="ellipse;whiteSpace=wrap;html=1;aspect=fixed;fillColor=#ffe6cc;strokeColor=#d79b00;" parent="WIyWlLk6GJQsqaUBKTNV-1" vertex="1">
          <mxGeometry x="60" y="430" width="20" height="20" as="geometry" />
        </mxCell>
        <mxCell id="siAdTkyfHeQNk--nSfNy-27" value="" style="endArrow=none;html=1;rounded=0;exitX=1;exitY=0.5;exitDx=0;exitDy=0;edgeStyle=orthogonalEdgeStyle;entryX=0;entryY=0.5;entryDx=0;entryDy=0;strokeWidth=4;startArrow=none;" parent="WIyWlLk6GJQsqaUBKTNV-1" source="siAdTkyfHeQNk--nSfNy-47" target="siAdTkyfHeQNk--nSfNy-28" edge="1">
          <mxGeometry width="50" height="50" relative="1" as="geometry">
            <mxPoint x="390" y="500" as="sourcePoint" />
            <mxPoint x="720" y="440" as="targetPoint" />
          </mxGeometry>
        </mxCell>
        <mxCell id="siAdTkyfHeQNk--nSfNy-28" value="" style="ellipse;whiteSpace=wrap;html=1;aspect=fixed;fillColor=#ffe6cc;strokeColor=#d79b00;" parent="WIyWlLk6GJQsqaUBKTNV-1" vertex="1">
          <mxGeometry x="720" y="430" width="20" height="20" as="geometry" />
        </mxCell>
        <mxCell id="siAdTkyfHeQNk--nSfNy-29" value="" style="ellipse;whiteSpace=wrap;html=1;aspect=fixed;fillColor=#fff2cc;strokeColor=#d6b656;" parent="WIyWlLk6GJQsqaUBKTNV-1" vertex="1">
          <mxGeometry x="60" y="500" width="20" height="20" as="geometry" />
        </mxCell>
        <mxCell id="siAdTkyfHeQNk--nSfNy-30" value="" style="endArrow=none;html=1;rounded=0;exitX=1;exitY=0.5;exitDx=0;exitDy=0;edgeStyle=orthogonalEdgeStyle;entryX=0;entryY=0.5;entryDx=0;entryDy=0;strokeWidth=4;startArrow=none;" parent="WIyWlLk6GJQsqaUBKTNV-1" source="siAdTkyfHeQNk--nSfNy-55" target="siAdTkyfHeQNk--nSfNy-31" edge="1">
          <mxGeometry width="50" height="50" relative="1" as="geometry">
            <mxPoint x="390" y="570" as="sourcePoint" />
            <mxPoint x="720" y="510" as="targetPoint" />
          </mxGeometry>
        </mxCell>
        <mxCell id="siAdTkyfHeQNk--nSfNy-31" value="" style="ellipse;whiteSpace=wrap;html=1;aspect=fixed;fillColor=#fff2cc;strokeColor=#d6b656;" parent="WIyWlLk6GJQsqaUBKTNV-1" vertex="1">
          <mxGeometry x="720" y="500" width="20" height="20" as="geometry" />
        </mxCell>
        <mxCell id="siAdTkyfHeQNk--nSfNy-32" value="" style="ellipse;whiteSpace=wrap;html=1;aspect=fixed;fillColor=#d5e8d4;strokeColor=#82b366;" parent="WIyWlLk6GJQsqaUBKTNV-1" vertex="1">
          <mxGeometry x="60" y="564" width="20" height="20" as="geometry" />
        </mxCell>
        <mxCell id="siAdTkyfHeQNk--nSfNy-33" value="" style="endArrow=none;html=1;exitX=1;exitY=0.5;exitDx=0;exitDy=0;strokeWidth=4;startArrow=none;curved=1;" parent="WIyWlLk6GJQsqaUBKTNV-1" source="siAdTkyfHeQNk--nSfNy-117" edge="1">
          <mxGeometry width="50" height="50" relative="1" as="geometry">
            <mxPoint x="390" y="634" as="sourcePoint" />
            <mxPoint x="730" y="574" as="targetPoint" />
          </mxGeometry>
        </mxCell>
        <mxCell id="siAdTkyfHeQNk--nSfNy-34" value="" style="ellipse;whiteSpace=wrap;html=1;aspect=fixed;fillColor=#d5e8d4;strokeColor=#82b366;" parent="WIyWlLk6GJQsqaUBKTNV-1" vertex="1">
          <mxGeometry x="720" y="564" width="20" height="20" as="geometry" />
        </mxCell>
        <mxCell id="siAdTkyfHeQNk--nSfNy-36" value="" style="endArrow=none;html=1;rounded=0;exitX=1;exitY=0.5;exitDx=0;exitDy=0;edgeStyle=orthogonalEdgeStyle;entryX=0;entryY=0.5;entryDx=0;entryDy=0;strokeWidth=4;startArrow=none;" parent="WIyWlLk6GJQsqaUBKTNV-1" source="siAdTkyfHeQNk--nSfNy-60" target="siAdTkyfHeQNk--nSfNy-37" edge="1">
          <mxGeometry width="50" height="50" relative="1" as="geometry">
            <mxPoint x="349" y="690" as="sourcePoint" />
            <mxPoint x="679" y="630" as="targetPoint" />
          </mxGeometry>
        </mxCell>
        <mxCell id="siAdTkyfHeQNk--nSfNy-86" value="feature/xx1" style="edgeLabel;html=1;align=center;verticalAlign=middle;resizable=0;points=[];" parent="siAdTkyfHeQNk--nSfNy-36" vertex="1" connectable="0">
          <mxGeometry x="-0.2667" y="-4" relative="1" as="geometry">
            <mxPoint x="-38" y="-14" as="offset" />
          </mxGeometry>
        </mxCell>
        <mxCell id="siAdTkyfHeQNk--nSfNy-73" style="edgeStyle=orthogonalEdgeStyle;rounded=0;orthogonalLoop=1;jettySize=auto;html=1;curved=1;strokeWidth=4;endArrow=classic;endFill=1;entryX=0.5;entryY=1;entryDx=0;entryDy=0;" parent="WIyWlLk6GJQsqaUBKTNV-1" source="siAdTkyfHeQNk--nSfNy-37" target="siAdTkyfHeQNk--nSfNy-90" edge="1">
          <mxGeometry relative="1" as="geometry">
            <mxPoint x="459" y="580" as="targetPoint" />
          </mxGeometry>
        </mxCell>
        <mxCell id="siAdTkyfHeQNk--nSfNy-76" value="merge request&lt;br&gt;with squash" style="edgeLabel;html=1;align=center;verticalAlign=middle;resizable=0;points=[];" parent="siAdTkyfHeQNk--nSfNy-73" vertex="1" connectable="0">
          <mxGeometry x="0.32" y="13" relative="1" as="geometry">
            <mxPoint x="13" y="3" as="offset" />
          </mxGeometry>
        </mxCell>
        <mxCell id="siAdTkyfHeQNk--nSfNy-37" value="" style="ellipse;whiteSpace=wrap;html=1;aspect=fixed;fillColor=#dae8fc;strokeColor=#6c8ebf;" parent="WIyWlLk6GJQsqaUBKTNV-1" vertex="1">
          <mxGeometry x="363" y="620" width="20" height="20" as="geometry" />
        </mxCell>
        <mxCell id="siAdTkyfHeQNk--nSfNy-48" value="" style="endArrow=none;html=1;rounded=0;exitX=1;exitY=0.5;exitDx=0;exitDy=0;edgeStyle=orthogonalEdgeStyle;entryX=0;entryY=0.5;entryDx=0;entryDy=0;strokeWidth=4;" parent="WIyWlLk6GJQsqaUBKTNV-1" source="siAdTkyfHeQNk--nSfNy-26" target="siAdTkyfHeQNk--nSfNy-47" edge="1">
          <mxGeometry width="50" height="50" relative="1" as="geometry">
            <mxPoint x="80" y="440" as="sourcePoint" />
            <mxPoint x="720" y="440" as="targetPoint" />
          </mxGeometry>
        </mxCell>
        <mxCell id="siAdTkyfHeQNk--nSfNy-47" value="" style="ellipse;whiteSpace=wrap;html=1;aspect=fixed;fillColor=#ffe6cc;strokeColor=#d79b00;" parent="WIyWlLk6GJQsqaUBKTNV-1" vertex="1">
          <mxGeometry x="259" y="430" width="20" height="20" as="geometry" />
        </mxCell>
        <mxCell id="siAdTkyfHeQNk--nSfNy-50" value="" style="endArrow=classic;html=1;rounded=0;entryX=0.5;entryY=1;entryDx=0;entryDy=0;edgeStyle=orthogonalEdgeStyle;curved=1;strokeWidth=4;endFill=1;exitX=1;exitY=0.5;exitDx=0;exitDy=0;" parent="WIyWlLk6GJQsqaUBKTNV-1" source="siAdTkyfHeQNk--nSfNy-96" target="siAdTkyfHeQNk--nSfNy-47" edge="1">
          <mxGeometry width="50" height="50" relative="1" as="geometry">
            <mxPoint x="209" y="510" as="sourcePoint" />
            <mxPoint x="249" y="490" as="targetPoint" />
          </mxGeometry>
        </mxCell>
        <mxCell id="siAdTkyfHeQNk--nSfNy-98" value="merge request" style="edgeLabel;html=1;align=center;verticalAlign=middle;resizable=0;points=[];" parent="siAdTkyfHeQNk--nSfNy-50" vertex="1" connectable="0">
          <mxGeometry x="0.2965" y="5" relative="1" as="geometry">
            <mxPoint as="offset" />
          </mxGeometry>
        </mxCell>
        <mxCell id="siAdTkyfHeQNk--nSfNy-52" value="" style="endArrow=none;html=1;rounded=0;exitX=1;exitY=0.5;exitDx=0;exitDy=0;edgeStyle=orthogonalEdgeStyle;entryX=0;entryY=0.5;entryDx=0;entryDy=0;strokeWidth=4;" parent="WIyWlLk6GJQsqaUBKTNV-1" source="siAdTkyfHeQNk--nSfNy-11" target="siAdTkyfHeQNk--nSfNy-51" edge="1">
          <mxGeometry width="50" height="50" relative="1" as="geometry">
            <mxPoint x="80" y="350" as="sourcePoint" />
            <mxPoint x="720" y="350" as="targetPoint" />
            <Array as="points">
              <mxPoint x="240" y="350" />
            </Array>
          </mxGeometry>
        </mxCell>
        <mxCell id="siAdTkyfHeQNk--nSfNy-51" value="" style="ellipse;whiteSpace=wrap;html=1;aspect=fixed;fillColor=#e1d5e7;strokeColor=#9673a6;" parent="WIyWlLk6GJQsqaUBKTNV-1" vertex="1">
          <mxGeometry x="399" y="340" width="20" height="20" as="geometry" />
        </mxCell>
        <mxCell id="siAdTkyfHeQNk--nSfNy-53" value="" style="endArrow=classic;html=1;rounded=0;entryX=0.5;entryY=1;entryDx=0;entryDy=0;strokeWidth=4;edgeStyle=orthogonalEdgeStyle;curved=1;endFill=1;exitX=1;exitY=0.5;exitDx=0;exitDy=0;" parent="WIyWlLk6GJQsqaUBKTNV-1" source="siAdTkyfHeQNk--nSfNy-47" target="siAdTkyfHeQNk--nSfNy-51" edge="1">
          <mxGeometry width="50" height="50" relative="1" as="geometry">
            <mxPoint x="339" y="450" as="sourcePoint" />
            <mxPoint x="399" y="390" as="targetPoint" />
          </mxGeometry>
        </mxCell>
        <mxCell id="siAdTkyfHeQNk--nSfNy-99" value="merge request" style="edgeLabel;html=1;align=center;verticalAlign=middle;resizable=0;points=[];" parent="siAdTkyfHeQNk--nSfNy-53" vertex="1" connectable="0">
          <mxGeometry x="0.4996" y="22" relative="1" as="geometry">
            <mxPoint as="offset" />
          </mxGeometry>
        </mxCell>
        <mxCell id="siAdTkyfHeQNk--nSfNy-64" style="edgeStyle=orthogonalEdgeStyle;rounded=0;orthogonalLoop=1;jettySize=auto;html=1;endArrow=classicThin;endFill=1;strokeWidth=3;entryX=0.5;entryY=0;entryDx=0;entryDy=0;" parent="WIyWlLk6GJQsqaUBKTNV-1" source="siAdTkyfHeQNk--nSfNy-54" target="siAdTkyfHeQNk--nSfNy-65" edge="1">
          <mxGeometry relative="1" as="geometry">
            <mxPoint x="309" y="650" as="targetPoint" />
          </mxGeometry>
        </mxCell>
        <mxCell id="siAdTkyfHeQNk--nSfNy-78" value="checkout" style="edgeLabel;html=1;align=center;verticalAlign=middle;resizable=0;points=[];" parent="siAdTkyfHeQNk--nSfNy-64" vertex="1" connectable="0">
          <mxGeometry x="-0.2987" relative="1" as="geometry">
            <mxPoint as="offset" />
          </mxGeometry>
        </mxCell>
        <mxCell id="siAdTkyfHeQNk--nSfNy-56" value="" style="endArrow=none;html=1;rounded=0;exitX=1;exitY=0.5;exitDx=0;exitDy=0;edgeStyle=orthogonalEdgeStyle;entryX=0;entryY=0.5;entryDx=0;entryDy=0;strokeWidth=4;startArrow=none;" parent="WIyWlLk6GJQsqaUBKTNV-1" source="siAdTkyfHeQNk--nSfNy-96" target="siAdTkyfHeQNk--nSfNy-55" edge="1">
          <mxGeometry width="50" height="50" relative="1" as="geometry">
            <mxPoint x="39" y="510" as="sourcePoint" />
            <mxPoint x="679" y="510" as="targetPoint" />
          </mxGeometry>
        </mxCell>
        <mxCell id="siAdTkyfHeQNk--nSfNy-55" value="" style="ellipse;whiteSpace=wrap;html=1;aspect=fixed;fillColor=#fff2cc;strokeColor=#d6b656;" parent="WIyWlLk6GJQsqaUBKTNV-1" vertex="1">
          <mxGeometry x="419" y="500" width="20" height="20" as="geometry" />
        </mxCell>
        <mxCell id="siAdTkyfHeQNk--nSfNy-58" value="" style="endArrow=none;html=1;rounded=0;exitX=1;exitY=0.5;exitDx=0;exitDy=0;entryX=0;entryY=0.5;entryDx=0;entryDy=0;strokeWidth=4;" parent="WIyWlLk6GJQsqaUBKTNV-1" source="siAdTkyfHeQNk--nSfNy-32" target="siAdTkyfHeQNk--nSfNy-57" edge="1">
          <mxGeometry width="50" height="50" relative="1" as="geometry">
            <mxPoint x="80" y="574" as="sourcePoint" />
            <mxPoint x="720" y="574" as="targetPoint" />
          </mxGeometry>
        </mxCell>
        <mxCell id="siAdTkyfHeQNk--nSfNy-59" style="edgeStyle=orthogonalEdgeStyle;rounded=0;orthogonalLoop=1;jettySize=auto;html=1;entryX=0.5;entryY=0;entryDx=0;entryDy=0;endArrow=classicThin;endFill=1;strokeWidth=3;curved=1;" parent="WIyWlLk6GJQsqaUBKTNV-1" source="siAdTkyfHeQNk--nSfNy-57" target="siAdTkyfHeQNk--nSfNy-60" edge="1">
          <mxGeometry relative="1" as="geometry">
            <mxPoint x="139" y="620" as="targetPoint" />
          </mxGeometry>
        </mxCell>
        <mxCell id="siAdTkyfHeQNk--nSfNy-79" value="checkout" style="edgeLabel;html=1;align=center;verticalAlign=middle;resizable=0;points=[];" parent="siAdTkyfHeQNk--nSfNy-59" vertex="1" connectable="0">
          <mxGeometry x="0.1364" y="4" relative="1" as="geometry">
            <mxPoint as="offset" />
          </mxGeometry>
        </mxCell>
        <mxCell id="siAdTkyfHeQNk--nSfNy-57" value="" style="ellipse;whiteSpace=wrap;html=1;aspect=fixed;fillColor=#d5e8d4;strokeColor=#82b366;" parent="WIyWlLk6GJQsqaUBKTNV-1" vertex="1">
          <mxGeometry x="129" y="564" width="20" height="20" as="geometry" />
        </mxCell>
        <mxCell id="siAdTkyfHeQNk--nSfNy-60" value="" style="ellipse;whiteSpace=wrap;html=1;aspect=fixed;fillColor=#dae8fc;strokeColor=#6c8ebf;" parent="WIyWlLk6GJQsqaUBKTNV-1" vertex="1">
          <mxGeometry x="129" y="620" width="20" height="20" as="geometry" />
        </mxCell>
        <mxCell id="siAdTkyfHeQNk--nSfNy-65" value="" style="ellipse;whiteSpace=wrap;html=1;aspect=fixed;fillColor=#dae8fc;strokeColor=#6c8ebf;" parent="WIyWlLk6GJQsqaUBKTNV-1" vertex="1">
          <mxGeometry x="299" y="660" width="20" height="20" as="geometry" />
        </mxCell>
        <mxCell id="siAdTkyfHeQNk--nSfNy-68" value="" style="endArrow=none;html=1;rounded=0;entryX=0.5;entryY=1;entryDx=0;entryDy=0;strokeWidth=4;edgeStyle=orthogonalEdgeStyle;curved=1;" parent="WIyWlLk6GJQsqaUBKTNV-1" source="siAdTkyfHeQNk--nSfNy-69" target="siAdTkyfHeQNk--nSfNy-55" edge="1">
          <mxGeometry width="50" height="50" relative="1" as="geometry">
            <mxPoint x="389" y="570" as="sourcePoint" />
            <mxPoint x="439" y="530" as="targetPoint" />
          </mxGeometry>
        </mxCell>
        <mxCell id="siAdTkyfHeQNk--nSfNy-100" value="merge request" style="edgeLabel;html=1;align=center;verticalAlign=middle;resizable=0;points=[];" parent="siAdTkyfHeQNk--nSfNy-68" vertex="1" connectable="0">
          <mxGeometry x="0.2139" y="2" relative="1" as="geometry">
            <mxPoint x="2" y="-9" as="offset" />
          </mxGeometry>
        </mxCell>
        <mxCell id="siAdTkyfHeQNk--nSfNy-71" value="" style="endArrow=none;html=1;rounded=0;exitX=1;exitY=0.5;exitDx=0;exitDy=0;strokeWidth=4;startArrow=none;" parent="WIyWlLk6GJQsqaUBKTNV-1" source="siAdTkyfHeQNk--nSfNy-57" target="siAdTkyfHeQNk--nSfNy-69" edge="1">
          <mxGeometry width="50" height="50" relative="1" as="geometry">
            <mxPoint x="149" y="574" as="sourcePoint" />
            <mxPoint x="689" y="574" as="targetPoint" />
          </mxGeometry>
        </mxCell>
        <mxCell id="siAdTkyfHeQNk--nSfNy-74" style="edgeStyle=orthogonalEdgeStyle;orthogonalLoop=1;jettySize=auto;html=1;entryX=0.5;entryY=0;entryDx=0;entryDy=0;curved=1;strokeWidth=4;endArrow=classicThin;endFill=1;" parent="WIyWlLk6GJQsqaUBKTNV-1" source="siAdTkyfHeQNk--nSfNy-69" target="siAdTkyfHeQNk--nSfNy-37" edge="1">
          <mxGeometry relative="1" as="geometry" />
        </mxCell>
        <mxCell id="siAdTkyfHeQNk--nSfNy-77" value="pull merge" style="edgeLabel;html=1;align=center;verticalAlign=middle;resizable=0;points=[];" parent="siAdTkyfHeQNk--nSfNy-74" vertex="1" connectable="0">
          <mxGeometry x="0.4717" y="-2" relative="1" as="geometry">
            <mxPoint x="2" y="-10" as="offset" />
          </mxGeometry>
        </mxCell>
        <mxCell id="siAdTkyfHeQNk--nSfNy-69" value="" style="ellipse;whiteSpace=wrap;html=1;aspect=fixed;fillColor=#d5e8d4;strokeColor=#82b366;" parent="WIyWlLk6GJQsqaUBKTNV-1" vertex="1">
          <mxGeometry x="363" y="563" width="20" height="20" as="geometry" />
        </mxCell>
        <mxCell id="siAdTkyfHeQNk--nSfNy-54" value="" style="ellipse;whiteSpace=wrap;html=1;aspect=fixed;fillColor=#d5e8d4;strokeColor=#82b366;" parent="WIyWlLk6GJQsqaUBKTNV-1" vertex="1">
          <mxGeometry x="299" y="563" width="20" height="20" as="geometry" />
        </mxCell>
        <mxCell id="siAdTkyfHeQNk--nSfNy-81" value="" style="endArrow=none;html=1;exitX=1;exitY=0.5;exitDx=0;exitDy=0;strokeWidth=4;startArrow=none;curved=1;" parent="WIyWlLk6GJQsqaUBKTNV-1" source="siAdTkyfHeQNk--nSfNy-90" target="siAdTkyfHeQNk--nSfNy-80" edge="1">
          <mxGeometry width="50" height="50" relative="1" as="geometry">
            <mxPoint x="409" y="573" as="sourcePoint" />
            <mxPoint x="689" y="574" as="targetPoint" />
          </mxGeometry>
        </mxCell>
        <mxCell id="siAdTkyfHeQNk--nSfNy-82" style="edgeStyle=orthogonalEdgeStyle;rounded=0;orthogonalLoop=1;jettySize=auto;html=1;endArrow=classicThin;endFill=1;strokeWidth=3;" parent="WIyWlLk6GJQsqaUBKTNV-1" source="siAdTkyfHeQNk--nSfNy-80" target="siAdTkyfHeQNk--nSfNy-83" edge="1">
          <mxGeometry relative="1" as="geometry">
            <mxPoint x="502" y="640" as="targetPoint" />
            <Array as="points" />
          </mxGeometry>
        </mxCell>
        <mxCell id="siAdTkyfHeQNk--nSfNy-95" value="pull merge" style="edgeLabel;html=1;align=center;verticalAlign=middle;resizable=0;points=[];" parent="siAdTkyfHeQNk--nSfNy-82" vertex="1" connectable="0">
          <mxGeometry x="-0.18" y="-1" relative="1" as="geometry">
            <mxPoint x="1" y="-5" as="offset" />
          </mxGeometry>
        </mxCell>
        <mxCell id="siAdTkyfHeQNk--nSfNy-80" value="" style="ellipse;whiteSpace=wrap;html=1;aspect=fixed;fillColor=#d5e8d4;strokeColor=#82b366;" parent="WIyWlLk6GJQsqaUBKTNV-1" vertex="1">
          <mxGeometry x="519" y="564" width="20" height="20" as="geometry" />
        </mxCell>
        <mxCell id="siAdTkyfHeQNk--nSfNy-84" value="" style="edgeStyle=orthogonalEdgeStyle;rounded=0;orthogonalLoop=1;jettySize=auto;html=1;strokeWidth=4;endArrow=none;endFill=0;curved=1;" parent="WIyWlLk6GJQsqaUBKTNV-1" source="siAdTkyfHeQNk--nSfNy-65" target="siAdTkyfHeQNk--nSfNy-83" edge="1">
          <mxGeometry relative="1" as="geometry">
            <mxPoint x="509" y="670" as="targetPoint" />
            <mxPoint x="319" y="670" as="sourcePoint" />
          </mxGeometry>
        </mxCell>
        <mxCell id="siAdTkyfHeQNk--nSfNy-88" value="feature/xx2" style="edgeLabel;html=1;align=center;verticalAlign=middle;resizable=0;points=[];" parent="siAdTkyfHeQNk--nSfNy-84" vertex="1" connectable="0">
          <mxGeometry x="-0.5657" y="-1" relative="1" as="geometry">
            <mxPoint x="1" y="-11" as="offset" />
          </mxGeometry>
        </mxCell>
        <mxCell id="siAdTkyfHeQNk--nSfNy-94" style="edgeStyle=orthogonalEdgeStyle;rounded=0;orthogonalLoop=1;jettySize=auto;html=1;entryX=0.5;entryY=1;entryDx=0;entryDy=0;curved=1;strokeWidth=5;" parent="WIyWlLk6GJQsqaUBKTNV-1" source="siAdTkyfHeQNk--nSfNy-83" target="siAdTkyfHeQNk--nSfNy-92" edge="1">
          <mxGeometry relative="1" as="geometry" />
        </mxCell>
        <mxCell id="siAdTkyfHeQNk--nSfNy-101" value="merge request&lt;br style=&quot;border-color: var(--border-color);&quot;&gt;with squash" style="edgeLabel;html=1;align=center;verticalAlign=middle;resizable=0;points=[];" parent="siAdTkyfHeQNk--nSfNy-94" vertex="1" connectable="0">
          <mxGeometry x="0.2157" y="9" relative="1" as="geometry">
            <mxPoint x="9" y="3" as="offset" />
          </mxGeometry>
        </mxCell>
        <mxCell id="siAdTkyfHeQNk--nSfNy-83" value="" style="ellipse;whiteSpace=wrap;html=1;aspect=fixed;fillColor=#dae8fc;strokeColor=#6c8ebf;" parent="WIyWlLk6GJQsqaUBKTNV-1" vertex="1">
          <mxGeometry x="519" y="660" width="20" height="20" as="geometry" />
        </mxCell>
        <mxCell id="siAdTkyfHeQNk--nSfNy-91" value="" style="endArrow=none;html=1;exitX=1;exitY=0.5;exitDx=0;exitDy=0;strokeWidth=4;startArrow=none;curved=1;" parent="WIyWlLk6GJQsqaUBKTNV-1" source="siAdTkyfHeQNk--nSfNy-69" target="siAdTkyfHeQNk--nSfNy-90" edge="1">
          <mxGeometry width="50" height="50" relative="1" as="geometry">
            <mxPoint x="409" y="573" as="sourcePoint" />
            <mxPoint x="494" y="574" as="targetPoint" />
          </mxGeometry>
        </mxCell>
        <mxCell id="siAdTkyfHeQNk--nSfNy-90" value="" style="ellipse;whiteSpace=wrap;html=1;aspect=fixed;fillColor=#d5e8d4;strokeColor=#82b366;" parent="WIyWlLk6GJQsqaUBKTNV-1" vertex="1">
          <mxGeometry x="449" y="564" width="20" height="20" as="geometry" />
        </mxCell>
        <mxCell id="siAdTkyfHeQNk--nSfNy-93" value="" style="endArrow=none;html=1;exitX=1;exitY=0.5;exitDx=0;exitDy=0;strokeWidth=4;startArrow=none;curved=1;" parent="WIyWlLk6GJQsqaUBKTNV-1" source="siAdTkyfHeQNk--nSfNy-80" target="siAdTkyfHeQNk--nSfNy-92" edge="1">
          <mxGeometry width="50" height="50" relative="1" as="geometry">
            <mxPoint x="514" y="574" as="sourcePoint" />
            <mxPoint x="689" y="574" as="targetPoint" />
          </mxGeometry>
        </mxCell>
        <mxCell id="siAdTkyfHeQNk--nSfNy-92" value="" style="ellipse;whiteSpace=wrap;html=1;aspect=fixed;fillColor=#d5e8d4;strokeColor=#82b366;" parent="WIyWlLk6GJQsqaUBKTNV-1" vertex="1">
          <mxGeometry x="579" y="564" width="20" height="20" as="geometry" />
        </mxCell>
        <mxCell id="siAdTkyfHeQNk--nSfNy-97" value="" style="endArrow=none;html=1;rounded=0;exitX=1;exitY=0.5;exitDx=0;exitDy=0;edgeStyle=orthogonalEdgeStyle;entryX=0;entryY=0.5;entryDx=0;entryDy=0;strokeWidth=4;" parent="WIyWlLk6GJQsqaUBKTNV-1" source="siAdTkyfHeQNk--nSfNy-29" target="siAdTkyfHeQNk--nSfNy-96" edge="1">
          <mxGeometry width="50" height="50" relative="1" as="geometry">
            <mxPoint x="80" y="510" as="sourcePoint" />
            <mxPoint x="460" y="510" as="targetPoint" />
          </mxGeometry>
        </mxCell>
        <mxCell id="siAdTkyfHeQNk--nSfNy-96" value="" style="ellipse;whiteSpace=wrap;html=1;aspect=fixed;fillColor=#fff2cc;strokeColor=#d6b656;" parent="WIyWlLk6GJQsqaUBKTNV-1" vertex="1">
          <mxGeometry x="199" y="500" width="20" height="20" as="geometry" />
        </mxCell>
        <mxCell id="siAdTkyfHeQNk--nSfNy-103" value="" style="edgeStyle=orthogonalEdgeStyle;rounded=0;orthogonalLoop=1;jettySize=auto;html=1;endArrow=none;endFill=0;strokeWidth=5;curved=1;exitX=1;exitY=0.5;exitDx=0;exitDy=0;" parent="WIyWlLk6GJQsqaUBKTNV-1" source="siAdTkyfHeQNk--nSfNy-20" target="siAdTkyfHeQNk--nSfNy-102" edge="1">
          <mxGeometry relative="1" as="geometry">
            <mxPoint x="619" y="350" as="targetPoint" />
            <mxPoint x="469" y="410" as="sourcePoint" />
          </mxGeometry>
        </mxCell>
        <mxCell id="siAdTkyfHeQNk--nSfNy-112" value="hotfix/xxx" style="edgeLabel;html=1;align=center;verticalAlign=middle;resizable=0;points=[];" parent="siAdTkyfHeQNk--nSfNy-103" vertex="1" connectable="0">
          <mxGeometry x="-0.3277" y="2" relative="1" as="geometry">
            <mxPoint x="-10" y="-8" as="offset" />
          </mxGeometry>
        </mxCell>
        <mxCell id="siAdTkyfHeQNk--nSfNy-105" style="edgeStyle=orthogonalEdgeStyle;rounded=0;orthogonalLoop=1;jettySize=auto;html=1;strokeWidth=4;curved=1;" parent="WIyWlLk6GJQsqaUBKTNV-1" source="siAdTkyfHeQNk--nSfNy-102" edge="1">
          <mxGeometry relative="1" as="geometry">
            <mxPoint x="629" y="350" as="targetPoint" />
          </mxGeometry>
        </mxCell>
        <mxCell id="siAdTkyfHeQNk--nSfNy-113" value="merge request&lt;br style=&quot;border-color: var(--border-color);&quot;&gt;with squash" style="edgeLabel;html=1;align=center;verticalAlign=middle;resizable=0;points=[];" parent="siAdTkyfHeQNk--nSfNy-105" vertex="1" connectable="0">
          <mxGeometry x="-0.0864" y="3" relative="1" as="geometry">
            <mxPoint x="43" as="offset" />
          </mxGeometry>
        </mxCell>
        <mxCell id="siAdTkyfHeQNk--nSfNy-102" value="" style="ellipse;whiteSpace=wrap;html=1;aspect=fixed;fillColor=#f8cecc;strokeColor=#b85450;" parent="WIyWlLk6GJQsqaUBKTNV-1" vertex="1">
          <mxGeometry x="588" y="400" width="20" height="20" as="geometry" />
        </mxCell>
        <mxCell id="siAdTkyfHeQNk--nSfNy-107" value="" style="endArrow=none;html=1;rounded=0;exitX=1;exitY=0.5;exitDx=0;exitDy=0;edgeStyle=orthogonalEdgeStyle;entryX=0;entryY=0.5;entryDx=0;entryDy=0;strokeWidth=4;startArrow=none;" parent="WIyWlLk6GJQsqaUBKTNV-1" source="siAdTkyfHeQNk--nSfNy-108" target="siAdTkyfHeQNk--nSfNy-106" edge="1">
          <mxGeometry width="50" height="50" relative="1" as="geometry">
            <mxPoint x="419" y="350" as="sourcePoint" />
            <mxPoint x="679" y="350" as="targetPoint" />
            <Array as="points" />
          </mxGeometry>
        </mxCell>
        <mxCell id="siAdTkyfHeQNk--nSfNy-116" value="pull merge" style="edgeStyle=orthogonalEdgeStyle;rounded=0;orthogonalLoop=1;jettySize=auto;html=1;entryX=0.5;entryY=0;entryDx=0;entryDy=0;strokeWidth=3;endArrow=classicThin;endFill=1;" parent="WIyWlLk6GJQsqaUBKTNV-1" source="siAdTkyfHeQNk--nSfNy-106" target="siAdTkyfHeQNk--nSfNy-117" edge="1">
          <mxGeometry relative="1" as="geometry">
            <mxPoint x="630" y="570" as="targetPoint" />
          </mxGeometry>
        </mxCell>
        <mxCell id="siAdTkyfHeQNk--nSfNy-106" value="" style="ellipse;whiteSpace=wrap;html=1;aspect=fixed;fillColor=#e1d5e7;strokeColor=#9673a6;" parent="WIyWlLk6GJQsqaUBKTNV-1" vertex="1">
          <mxGeometry x="619" y="340" width="20" height="20" as="geometry" />
        </mxCell>
        <mxCell id="siAdTkyfHeQNk--nSfNy-109" value="" style="endArrow=none;html=1;rounded=0;exitX=1;exitY=0.5;exitDx=0;exitDy=0;edgeStyle=orthogonalEdgeStyle;entryX=0;entryY=0.5;entryDx=0;entryDy=0;strokeWidth=4;startArrow=none;" parent="WIyWlLk6GJQsqaUBKTNV-1" source="siAdTkyfHeQNk--nSfNy-51" target="siAdTkyfHeQNk--nSfNy-108" edge="1">
          <mxGeometry width="50" height="50" relative="1" as="geometry">
            <mxPoint x="419" y="350" as="sourcePoint" />
            <mxPoint x="619" y="350" as="targetPoint" />
            <Array as="points" />
          </mxGeometry>
        </mxCell>
        <mxCell id="siAdTkyfHeQNk--nSfNy-110" style="edgeStyle=orthogonalEdgeStyle;rounded=0;orthogonalLoop=1;jettySize=auto;html=1;entryX=0.5;entryY=0;entryDx=0;entryDy=0;strokeWidth=3;endArrow=classicThin;endFill=1;" parent="WIyWlLk6GJQsqaUBKTNV-1" source="siAdTkyfHeQNk--nSfNy-108" target="siAdTkyfHeQNk--nSfNy-20" edge="1">
          <mxGeometry relative="1" as="geometry" />
        </mxCell>
        <mxCell id="siAdTkyfHeQNk--nSfNy-111" value="checkout" style="edgeLabel;html=1;align=center;verticalAlign=middle;resizable=0;points=[];" parent="siAdTkyfHeQNk--nSfNy-110" vertex="1" connectable="0">
          <mxGeometry x="-0.25" y="2" relative="1" as="geometry">
            <mxPoint as="offset" />
          </mxGeometry>
        </mxCell>
        <mxCell id="siAdTkyfHeQNk--nSfNy-108" value="" style="ellipse;whiteSpace=wrap;html=1;aspect=fixed;fillColor=#e1d5e7;strokeColor=#9673a6;" parent="WIyWlLk6GJQsqaUBKTNV-1" vertex="1">
          <mxGeometry x="449" y="340" width="20" height="20" as="geometry" />
        </mxCell>
        <mxCell id="siAdTkyfHeQNk--nSfNy-114" value="临时分支" style="swimlane;startSize=0;" parent="WIyWlLk6GJQsqaUBKTNV-1" vertex="1">
          <mxGeometry x="99" y="140" width="171" height="160" as="geometry" />
        </mxCell>
        <mxCell id="siAdTkyfHeQNk--nSfNy-118" value="" style="endArrow=none;html=1;exitX=1;exitY=0.5;exitDx=0;exitDy=0;strokeWidth=4;startArrow=none;curved=1;" parent="WIyWlLk6GJQsqaUBKTNV-1" source="siAdTkyfHeQNk--nSfNy-92" target="siAdTkyfHeQNk--nSfNy-117" edge="1">
          <mxGeometry width="50" height="50" relative="1" as="geometry">
            <mxPoint x="599" y="574" as="sourcePoint" />
            <mxPoint x="730" y="574" as="targetPoint" />
          </mxGeometry>
        </mxCell>
        <mxCell id="siAdTkyfHeQNk--nSfNy-117" value="" style="ellipse;whiteSpace=wrap;html=1;aspect=fixed;fillColor=#d5e8d4;strokeColor=#82b366;" parent="WIyWlLk6GJQsqaUBKTNV-1" vertex="1">
          <mxGeometry x="619" y="565" width="20" height="20" as="geometry" />
        </mxCell>
      </root>
    </mxGraphModel>
  </diagram>
  <diagram name="Page-1 的副本" id="QWrpuOGPGKkEZb9IPCXf">
    <mxGraphModel dx="1434" dy="686" grid="1" gridSize="10" guides="1" tooltips="1" connect="1" arrows="1" fold="1" page="1" pageScale="1" pageWidth="827" pageHeight="1169" math="0" shadow="0">
      <root>
        <mxCell id="t5FLfHT6trp5dHcLYC4g-0" />
        <mxCell id="t5FLfHT6trp5dHcLYC4g-1" parent="t5FLfHT6trp5dHcLYC4g-0" />
        <mxCell id="t5FLfHT6trp5dHcLYC4g-2" value="主分支" style="swimlane;startSize=0;" vertex="1" parent="t5FLfHT6trp5dHcLYC4g-1">
          <mxGeometry x="99" y="20" width="630" height="110" as="geometry">
            <mxRectangle x="99" y="20" width="80" height="30" as="alternateBounds" />
          </mxGeometry>
        </mxCell>
        <mxCell id="t5FLfHT6trp5dHcLYC4g-3" value="开发" style="text;html=1;align=center;verticalAlign=middle;resizable=0;points=[];autosize=1;strokeColor=none;fillColor=none;" vertex="1" parent="t5FLfHT6trp5dHcLYC4g-2">
          <mxGeometry x="30" width="50" height="30" as="geometry" />
        </mxCell>
        <mxCell id="t5FLfHT6trp5dHcLYC4g-4" value="测试" style="text;html=1;align=center;verticalAlign=middle;resizable=0;points=[];autosize=1;strokeColor=none;fillColor=none;" vertex="1" parent="t5FLfHT6trp5dHcLYC4g-2">
          <mxGeometry x="180" width="50" height="30" as="geometry" />
        </mxCell>
        <mxCell id="t5FLfHT6trp5dHcLYC4g-5" value="产品" style="text;html=1;align=center;verticalAlign=middle;resizable=0;points=[];autosize=1;strokeColor=none;fillColor=none;" vertex="1" parent="t5FLfHT6trp5dHcLYC4g-2">
          <mxGeometry x="331" width="50" height="30" as="geometry" />
        </mxCell>
        <mxCell id="t5FLfHT6trp5dHcLYC4g-6" value="线上" style="text;html=1;align=center;verticalAlign=middle;resizable=0;points=[];autosize=1;strokeColor=none;fillColor=none;" vertex="1" parent="t5FLfHT6trp5dHcLYC4g-2">
          <mxGeometry x="481" width="50" height="30" as="geometry" />
        </mxCell>
        <mxCell id="t5FLfHT6trp5dHcLYC4g-7" value="release" style="rounded=0;whiteSpace=wrap;html=1;fillColor=#e1d5e7;strokeColor=#9673a6;" vertex="1" parent="t5FLfHT6trp5dHcLYC4g-2">
          <mxGeometry x="480" y="40" width="120" height="60" as="geometry" />
        </mxCell>
        <mxCell id="t5FLfHT6trp5dHcLYC4g-8" value="uat" style="rounded=0;whiteSpace=wrap;html=1;fillColor=#ffe6cc;strokeColor=#d79b00;" vertex="1" parent="t5FLfHT6trp5dHcLYC4g-2">
          <mxGeometry x="334" y="40" width="120" height="60" as="geometry" />
        </mxCell>
        <mxCell id="t5FLfHT6trp5dHcLYC4g-9" value="test" style="rounded=0;whiteSpace=wrap;html=1;fillColor=#fff2cc;strokeColor=#d6b656;" vertex="1" parent="t5FLfHT6trp5dHcLYC4g-2">
          <mxGeometry x="180" y="40" width="120" height="60" as="geometry" />
        </mxCell>
        <mxCell id="t5FLfHT6trp5dHcLYC4g-10" value="dev" style="rounded=0;whiteSpace=wrap;html=1;fillColor=#d5e8d4;strokeColor=#82b366;" vertex="1" parent="t5FLfHT6trp5dHcLYC4g-2">
          <mxGeometry x="30" y="40" width="120" height="60" as="geometry" />
        </mxCell>
        <mxCell id="t5FLfHT6trp5dHcLYC4g-11" value="feature" style="rounded=0;whiteSpace=wrap;html=1;fillColor=#dae8fc;strokeColor=#6c8ebf;" vertex="1" parent="t5FLfHT6trp5dHcLYC4g-1">
          <mxGeometry x="129" y="150" width="120" height="60" as="geometry" />
        </mxCell>
        <mxCell id="t5FLfHT6trp5dHcLYC4g-12" value="hotfix" style="rounded=0;whiteSpace=wrap;html=1;fillColor=#f8cecc;strokeColor=#b85450;" vertex="1" parent="t5FLfHT6trp5dHcLYC4g-1">
          <mxGeometry x="129" y="230" width="120" height="60" as="geometry" />
        </mxCell>
        <mxCell id="t5FLfHT6trp5dHcLYC4g-13" value="" style="ellipse;whiteSpace=wrap;html=1;aspect=fixed;fillColor=#e1d5e7;strokeColor=#9673a6;" vertex="1" parent="t5FLfHT6trp5dHcLYC4g-1">
          <mxGeometry x="60" y="340" width="20" height="20" as="geometry" />
        </mxCell>
        <mxCell id="t5FLfHT6trp5dHcLYC4g-14" value="" style="endArrow=none;html=1;rounded=0;exitX=1;exitY=0.5;exitDx=0;exitDy=0;edgeStyle=orthogonalEdgeStyle;entryX=0;entryY=0.5;entryDx=0;entryDy=0;strokeWidth=4;startArrow=none;" edge="1" parent="t5FLfHT6trp5dHcLYC4g-1" source="t5FLfHT6trp5dHcLYC4g-78" target="t5FLfHT6trp5dHcLYC4g-15">
          <mxGeometry width="50" height="50" relative="1" as="geometry">
            <mxPoint x="390" y="410" as="sourcePoint" />
            <mxPoint x="720" y="350" as="targetPoint" />
            <Array as="points">
              <mxPoint x="240" y="350" />
            </Array>
          </mxGeometry>
        </mxCell>
        <mxCell id="t5FLfHT6trp5dHcLYC4g-15" value="" style="ellipse;whiteSpace=wrap;html=1;aspect=fixed;fillColor=#e1d5e7;strokeColor=#9673a6;" vertex="1" parent="t5FLfHT6trp5dHcLYC4g-1">
          <mxGeometry x="720" y="340" width="20" height="20" as="geometry" />
        </mxCell>
        <mxCell id="t5FLfHT6trp5dHcLYC4g-16" value="" style="ellipse;whiteSpace=wrap;html=1;aspect=fixed;fillColor=#f8cecc;strokeColor=#b85450;" vertex="1" parent="t5FLfHT6trp5dHcLYC4g-1">
          <mxGeometry x="449" y="400" width="20" height="20" as="geometry" />
        </mxCell>
        <mxCell id="t5FLfHT6trp5dHcLYC4g-17" value="" style="ellipse;whiteSpace=wrap;html=1;aspect=fixed;fillColor=#ffe6cc;strokeColor=#d79b00;" vertex="1" parent="t5FLfHT6trp5dHcLYC4g-1">
          <mxGeometry x="60" y="430" width="20" height="20" as="geometry" />
        </mxCell>
        <mxCell id="t5FLfHT6trp5dHcLYC4g-18" value="" style="endArrow=none;html=1;rounded=0;exitX=1;exitY=0.5;exitDx=0;exitDy=0;edgeStyle=orthogonalEdgeStyle;entryX=0;entryY=0.5;entryDx=0;entryDy=0;strokeWidth=4;startArrow=none;" edge="1" parent="t5FLfHT6trp5dHcLYC4g-1" source="t5FLfHT6trp5dHcLYC4g-32" target="t5FLfHT6trp5dHcLYC4g-19">
          <mxGeometry width="50" height="50" relative="1" as="geometry">
            <mxPoint x="390" y="500" as="sourcePoint" />
            <mxPoint x="720" y="440" as="targetPoint" />
          </mxGeometry>
        </mxCell>
        <mxCell id="t5FLfHT6trp5dHcLYC4g-19" value="" style="ellipse;whiteSpace=wrap;html=1;aspect=fixed;fillColor=#ffe6cc;strokeColor=#d79b00;" vertex="1" parent="t5FLfHT6trp5dHcLYC4g-1">
          <mxGeometry x="720" y="430" width="20" height="20" as="geometry" />
        </mxCell>
        <mxCell id="t5FLfHT6trp5dHcLYC4g-20" value="" style="ellipse;whiteSpace=wrap;html=1;aspect=fixed;fillColor=#fff2cc;strokeColor=#d6b656;" vertex="1" parent="t5FLfHT6trp5dHcLYC4g-1">
          <mxGeometry x="60" y="500" width="20" height="20" as="geometry" />
        </mxCell>
        <mxCell id="t5FLfHT6trp5dHcLYC4g-21" value="" style="endArrow=none;html=1;rounded=0;exitX=1;exitY=0.5;exitDx=0;exitDy=0;edgeStyle=orthogonalEdgeStyle;entryX=0;entryY=0.5;entryDx=0;entryDy=0;strokeWidth=4;startArrow=none;" edge="1" parent="t5FLfHT6trp5dHcLYC4g-1" source="t5FLfHT6trp5dHcLYC4g-42" target="t5FLfHT6trp5dHcLYC4g-22">
          <mxGeometry width="50" height="50" relative="1" as="geometry">
            <mxPoint x="390" y="570" as="sourcePoint" />
            <mxPoint x="720" y="510" as="targetPoint" />
          </mxGeometry>
        </mxCell>
        <mxCell id="t5FLfHT6trp5dHcLYC4g-22" value="" style="ellipse;whiteSpace=wrap;html=1;aspect=fixed;fillColor=#fff2cc;strokeColor=#d6b656;" vertex="1" parent="t5FLfHT6trp5dHcLYC4g-1">
          <mxGeometry x="720" y="500" width="20" height="20" as="geometry" />
        </mxCell>
        <mxCell id="t5FLfHT6trp5dHcLYC4g-23" value="" style="ellipse;whiteSpace=wrap;html=1;aspect=fixed;fillColor=#d5e8d4;strokeColor=#82b366;" vertex="1" parent="t5FLfHT6trp5dHcLYC4g-1">
          <mxGeometry x="60" y="564" width="20" height="20" as="geometry" />
        </mxCell>
        <mxCell id="t5FLfHT6trp5dHcLYC4g-24" value="" style="endArrow=none;html=1;exitX=1;exitY=0.5;exitDx=0;exitDy=0;strokeWidth=4;startArrow=none;curved=1;" edge="1" parent="t5FLfHT6trp5dHcLYC4g-1" source="t5FLfHT6trp5dHcLYC4g-85">
          <mxGeometry width="50" height="50" relative="1" as="geometry">
            <mxPoint x="390" y="634" as="sourcePoint" />
            <mxPoint x="730" y="574" as="targetPoint" />
          </mxGeometry>
        </mxCell>
        <mxCell id="t5FLfHT6trp5dHcLYC4g-25" value="" style="ellipse;whiteSpace=wrap;html=1;aspect=fixed;fillColor=#d5e8d4;strokeColor=#82b366;" vertex="1" parent="t5FLfHT6trp5dHcLYC4g-1">
          <mxGeometry x="720" y="564" width="20" height="20" as="geometry" />
        </mxCell>
        <mxCell id="t5FLfHT6trp5dHcLYC4g-26" value="" style="endArrow=none;html=1;rounded=0;exitX=1;exitY=0.5;exitDx=0;exitDy=0;edgeStyle=orthogonalEdgeStyle;entryX=0;entryY=0.5;entryDx=0;entryDy=0;strokeWidth=4;startArrow=none;" edge="1" parent="t5FLfHT6trp5dHcLYC4g-1" source="t5FLfHT6trp5dHcLYC4g-47" target="t5FLfHT6trp5dHcLYC4g-30">
          <mxGeometry width="50" height="50" relative="1" as="geometry">
            <mxPoint x="349" y="690" as="sourcePoint" />
            <mxPoint x="679" y="630" as="targetPoint" />
          </mxGeometry>
        </mxCell>
        <mxCell id="t5FLfHT6trp5dHcLYC4g-27" value="feature/xx1" style="edgeLabel;html=1;align=center;verticalAlign=middle;resizable=0;points=[];" vertex="1" connectable="0" parent="t5FLfHT6trp5dHcLYC4g-26">
          <mxGeometry x="-0.2667" y="-4" relative="1" as="geometry">
            <mxPoint x="-38" y="-14" as="offset" />
          </mxGeometry>
        </mxCell>
        <mxCell id="t5FLfHT6trp5dHcLYC4g-28" style="edgeStyle=orthogonalEdgeStyle;rounded=0;orthogonalLoop=1;jettySize=auto;html=1;curved=1;strokeWidth=4;endArrow=classic;endFill=1;entryX=0.5;entryY=1;entryDx=0;entryDy=0;" edge="1" parent="t5FLfHT6trp5dHcLYC4g-1" source="t5FLfHT6trp5dHcLYC4g-30" target="t5FLfHT6trp5dHcLYC4g-66">
          <mxGeometry relative="1" as="geometry">
            <mxPoint x="459" y="580" as="targetPoint" />
          </mxGeometry>
        </mxCell>
        <mxCell id="t5FLfHT6trp5dHcLYC4g-29" value="merge request&lt;br&gt;with squash" style="edgeLabel;html=1;align=center;verticalAlign=middle;resizable=0;points=[];" vertex="1" connectable="0" parent="t5FLfHT6trp5dHcLYC4g-28">
          <mxGeometry x="0.32" y="13" relative="1" as="geometry">
            <mxPoint x="13" y="3" as="offset" />
          </mxGeometry>
        </mxCell>
        <mxCell id="t5FLfHT6trp5dHcLYC4g-30" value="" style="ellipse;whiteSpace=wrap;html=1;aspect=fixed;fillColor=#dae8fc;strokeColor=#6c8ebf;" vertex="1" parent="t5FLfHT6trp5dHcLYC4g-1">
          <mxGeometry x="363" y="620" width="20" height="20" as="geometry" />
        </mxCell>
        <mxCell id="t5FLfHT6trp5dHcLYC4g-31" value="" style="endArrow=none;html=1;rounded=0;exitX=1;exitY=0.5;exitDx=0;exitDy=0;edgeStyle=orthogonalEdgeStyle;entryX=0;entryY=0.5;entryDx=0;entryDy=0;strokeWidth=4;" edge="1" parent="t5FLfHT6trp5dHcLYC4g-1" source="t5FLfHT6trp5dHcLYC4g-17" target="t5FLfHT6trp5dHcLYC4g-32">
          <mxGeometry width="50" height="50" relative="1" as="geometry">
            <mxPoint x="80" y="440" as="sourcePoint" />
            <mxPoint x="720" y="440" as="targetPoint" />
          </mxGeometry>
        </mxCell>
        <mxCell id="t5FLfHT6trp5dHcLYC4g-32" value="" style="ellipse;whiteSpace=wrap;html=1;aspect=fixed;fillColor=#ffe6cc;strokeColor=#d79b00;" vertex="1" parent="t5FLfHT6trp5dHcLYC4g-1">
          <mxGeometry x="259" y="430" width="20" height="20" as="geometry" />
        </mxCell>
        <mxCell id="t5FLfHT6trp5dHcLYC4g-33" value="" style="endArrow=classic;html=1;rounded=0;entryX=0.5;entryY=1;entryDx=0;entryDy=0;edgeStyle=orthogonalEdgeStyle;curved=1;strokeWidth=4;endFill=1;exitX=1;exitY=0.5;exitDx=0;exitDy=0;" edge="1" parent="t5FLfHT6trp5dHcLYC4g-1" source="t5FLfHT6trp5dHcLYC4g-70" target="t5FLfHT6trp5dHcLYC4g-32">
          <mxGeometry width="50" height="50" relative="1" as="geometry">
            <mxPoint x="209" y="510" as="sourcePoint" />
            <mxPoint x="249" y="490" as="targetPoint" />
          </mxGeometry>
        </mxCell>
        <mxCell id="t5FLfHT6trp5dHcLYC4g-34" value="merge request" style="edgeLabel;html=1;align=center;verticalAlign=middle;resizable=0;points=[];" vertex="1" connectable="0" parent="t5FLfHT6trp5dHcLYC4g-33">
          <mxGeometry x="0.2965" y="5" relative="1" as="geometry">
            <mxPoint as="offset" />
          </mxGeometry>
        </mxCell>
        <mxCell id="t5FLfHT6trp5dHcLYC4g-35" value="" style="endArrow=none;html=1;rounded=0;exitX=1;exitY=0.5;exitDx=0;exitDy=0;edgeStyle=orthogonalEdgeStyle;entryX=0;entryY=0.5;entryDx=0;entryDy=0;strokeWidth=4;" edge="1" parent="t5FLfHT6trp5dHcLYC4g-1" source="t5FLfHT6trp5dHcLYC4g-13" target="t5FLfHT6trp5dHcLYC4g-36">
          <mxGeometry width="50" height="50" relative="1" as="geometry">
            <mxPoint x="80" y="350" as="sourcePoint" />
            <mxPoint x="720" y="350" as="targetPoint" />
            <Array as="points">
              <mxPoint x="240" y="350" />
            </Array>
          </mxGeometry>
        </mxCell>
        <mxCell id="t5FLfHT6trp5dHcLYC4g-36" value="" style="ellipse;whiteSpace=wrap;html=1;aspect=fixed;fillColor=#e1d5e7;strokeColor=#9673a6;" vertex="1" parent="t5FLfHT6trp5dHcLYC4g-1">
          <mxGeometry x="399" y="340" width="20" height="20" as="geometry" />
        </mxCell>
        <mxCell id="t5FLfHT6trp5dHcLYC4g-37" value="" style="endArrow=classic;html=1;rounded=0;entryX=0.5;entryY=1;entryDx=0;entryDy=0;strokeWidth=4;edgeStyle=orthogonalEdgeStyle;curved=1;endFill=1;exitX=1;exitY=0.5;exitDx=0;exitDy=0;" edge="1" parent="t5FLfHT6trp5dHcLYC4g-1" source="t5FLfHT6trp5dHcLYC4g-32" target="t5FLfHT6trp5dHcLYC4g-36">
          <mxGeometry width="50" height="50" relative="1" as="geometry">
            <mxPoint x="339" y="450" as="sourcePoint" />
            <mxPoint x="399" y="390" as="targetPoint" />
          </mxGeometry>
        </mxCell>
        <mxCell id="t5FLfHT6trp5dHcLYC4g-38" value="merge request" style="edgeLabel;html=1;align=center;verticalAlign=middle;resizable=0;points=[];" vertex="1" connectable="0" parent="t5FLfHT6trp5dHcLYC4g-37">
          <mxGeometry x="0.4996" y="22" relative="1" as="geometry">
            <mxPoint as="offset" />
          </mxGeometry>
        </mxCell>
        <mxCell id="t5FLfHT6trp5dHcLYC4g-39" style="edgeStyle=orthogonalEdgeStyle;rounded=0;orthogonalLoop=1;jettySize=auto;html=1;endArrow=classicThin;endFill=1;strokeWidth=3;entryX=0.5;entryY=0;entryDx=0;entryDy=0;" edge="1" parent="t5FLfHT6trp5dHcLYC4g-1" source="t5FLfHT6trp5dHcLYC4g-55" target="t5FLfHT6trp5dHcLYC4g-48">
          <mxGeometry relative="1" as="geometry">
            <mxPoint x="309" y="650" as="targetPoint" />
          </mxGeometry>
        </mxCell>
        <mxCell id="t5FLfHT6trp5dHcLYC4g-40" value="checkout" style="edgeLabel;html=1;align=center;verticalAlign=middle;resizable=0;points=[];" vertex="1" connectable="0" parent="t5FLfHT6trp5dHcLYC4g-39">
          <mxGeometry x="-0.2987" relative="1" as="geometry">
            <mxPoint as="offset" />
          </mxGeometry>
        </mxCell>
        <mxCell id="t5FLfHT6trp5dHcLYC4g-41" value="" style="endArrow=none;html=1;rounded=0;exitX=1;exitY=0.5;exitDx=0;exitDy=0;edgeStyle=orthogonalEdgeStyle;entryX=0;entryY=0.5;entryDx=0;entryDy=0;strokeWidth=4;startArrow=none;" edge="1" parent="t5FLfHT6trp5dHcLYC4g-1" source="t5FLfHT6trp5dHcLYC4g-70" target="t5FLfHT6trp5dHcLYC4g-42">
          <mxGeometry width="50" height="50" relative="1" as="geometry">
            <mxPoint x="39" y="510" as="sourcePoint" />
            <mxPoint x="679" y="510" as="targetPoint" />
          </mxGeometry>
        </mxCell>
        <mxCell id="t5FLfHT6trp5dHcLYC4g-42" value="" style="ellipse;whiteSpace=wrap;html=1;aspect=fixed;fillColor=#fff2cc;strokeColor=#d6b656;" vertex="1" parent="t5FLfHT6trp5dHcLYC4g-1">
          <mxGeometry x="419" y="500" width="20" height="20" as="geometry" />
        </mxCell>
        <mxCell id="t5FLfHT6trp5dHcLYC4g-43" value="" style="endArrow=none;html=1;rounded=0;exitX=1;exitY=0.5;exitDx=0;exitDy=0;entryX=0;entryY=0.5;entryDx=0;entryDy=0;strokeWidth=4;" edge="1" parent="t5FLfHT6trp5dHcLYC4g-1" source="t5FLfHT6trp5dHcLYC4g-23" target="t5FLfHT6trp5dHcLYC4g-46">
          <mxGeometry width="50" height="50" relative="1" as="geometry">
            <mxPoint x="80" y="574" as="sourcePoint" />
            <mxPoint x="720" y="574" as="targetPoint" />
          </mxGeometry>
        </mxCell>
        <mxCell id="t5FLfHT6trp5dHcLYC4g-44" style="edgeStyle=orthogonalEdgeStyle;rounded=0;orthogonalLoop=1;jettySize=auto;html=1;entryX=0.5;entryY=0;entryDx=0;entryDy=0;endArrow=classicThin;endFill=1;strokeWidth=3;curved=1;" edge="1" parent="t5FLfHT6trp5dHcLYC4g-1" source="t5FLfHT6trp5dHcLYC4g-46" target="t5FLfHT6trp5dHcLYC4g-47">
          <mxGeometry relative="1" as="geometry">
            <mxPoint x="139" y="620" as="targetPoint" />
          </mxGeometry>
        </mxCell>
        <mxCell id="t5FLfHT6trp5dHcLYC4g-45" value="checkout" style="edgeLabel;html=1;align=center;verticalAlign=middle;resizable=0;points=[];" vertex="1" connectable="0" parent="t5FLfHT6trp5dHcLYC4g-44">
          <mxGeometry x="0.1364" y="4" relative="1" as="geometry">
            <mxPoint as="offset" />
          </mxGeometry>
        </mxCell>
        <mxCell id="t5FLfHT6trp5dHcLYC4g-46" value="" style="ellipse;whiteSpace=wrap;html=1;aspect=fixed;fillColor=#d5e8d4;strokeColor=#82b366;" vertex="1" parent="t5FLfHT6trp5dHcLYC4g-1">
          <mxGeometry x="129" y="564" width="20" height="20" as="geometry" />
        </mxCell>
        <mxCell id="t5FLfHT6trp5dHcLYC4g-47" value="" style="ellipse;whiteSpace=wrap;html=1;aspect=fixed;fillColor=#dae8fc;strokeColor=#6c8ebf;" vertex="1" parent="t5FLfHT6trp5dHcLYC4g-1">
          <mxGeometry x="129" y="620" width="20" height="20" as="geometry" />
        </mxCell>
        <mxCell id="t5FLfHT6trp5dHcLYC4g-48" value="" style="ellipse;whiteSpace=wrap;html=1;aspect=fixed;fillColor=#dae8fc;strokeColor=#6c8ebf;" vertex="1" parent="t5FLfHT6trp5dHcLYC4g-1">
          <mxGeometry x="299" y="660" width="20" height="20" as="geometry" />
        </mxCell>
        <mxCell id="t5FLfHT6trp5dHcLYC4g-49" value="" style="endArrow=none;html=1;rounded=0;entryX=0.5;entryY=1;entryDx=0;entryDy=0;strokeWidth=4;edgeStyle=orthogonalEdgeStyle;curved=1;" edge="1" parent="t5FLfHT6trp5dHcLYC4g-1" source="t5FLfHT6trp5dHcLYC4g-54" target="t5FLfHT6trp5dHcLYC4g-42">
          <mxGeometry width="50" height="50" relative="1" as="geometry">
            <mxPoint x="389" y="570" as="sourcePoint" />
            <mxPoint x="439" y="530" as="targetPoint" />
          </mxGeometry>
        </mxCell>
        <mxCell id="t5FLfHT6trp5dHcLYC4g-50" value="merge request" style="edgeLabel;html=1;align=center;verticalAlign=middle;resizable=0;points=[];" vertex="1" connectable="0" parent="t5FLfHT6trp5dHcLYC4g-49">
          <mxGeometry x="0.2139" y="2" relative="1" as="geometry">
            <mxPoint x="2" y="-9" as="offset" />
          </mxGeometry>
        </mxCell>
        <mxCell id="t5FLfHT6trp5dHcLYC4g-51" value="" style="endArrow=none;html=1;rounded=0;exitX=1;exitY=0.5;exitDx=0;exitDy=0;strokeWidth=4;startArrow=none;" edge="1" parent="t5FLfHT6trp5dHcLYC4g-1" source="t5FLfHT6trp5dHcLYC4g-46" target="t5FLfHT6trp5dHcLYC4g-54">
          <mxGeometry width="50" height="50" relative="1" as="geometry">
            <mxPoint x="149" y="574" as="sourcePoint" />
            <mxPoint x="689" y="574" as="targetPoint" />
          </mxGeometry>
        </mxCell>
        <mxCell id="t5FLfHT6trp5dHcLYC4g-52" style="edgeStyle=orthogonalEdgeStyle;orthogonalLoop=1;jettySize=auto;html=1;entryX=0.5;entryY=0;entryDx=0;entryDy=0;curved=1;strokeWidth=4;endArrow=classicThin;endFill=1;" edge="1" parent="t5FLfHT6trp5dHcLYC4g-1" source="t5FLfHT6trp5dHcLYC4g-54" target="t5FLfHT6trp5dHcLYC4g-30">
          <mxGeometry relative="1" as="geometry" />
        </mxCell>
        <mxCell id="t5FLfHT6trp5dHcLYC4g-53" value="pull merge" style="edgeLabel;html=1;align=center;verticalAlign=middle;resizable=0;points=[];" vertex="1" connectable="0" parent="t5FLfHT6trp5dHcLYC4g-52">
          <mxGeometry x="0.4717" y="-2" relative="1" as="geometry">
            <mxPoint x="2" y="-10" as="offset" />
          </mxGeometry>
        </mxCell>
        <mxCell id="t5FLfHT6trp5dHcLYC4g-54" value="" style="ellipse;whiteSpace=wrap;html=1;aspect=fixed;fillColor=#d5e8d4;strokeColor=#82b366;" vertex="1" parent="t5FLfHT6trp5dHcLYC4g-1">
          <mxGeometry x="363" y="563" width="20" height="20" as="geometry" />
        </mxCell>
        <mxCell id="t5FLfHT6trp5dHcLYC4g-55" value="" style="ellipse;whiteSpace=wrap;html=1;aspect=fixed;fillColor=#d5e8d4;strokeColor=#82b366;" vertex="1" parent="t5FLfHT6trp5dHcLYC4g-1">
          <mxGeometry x="299" y="563" width="20" height="20" as="geometry" />
        </mxCell>
        <mxCell id="t5FLfHT6trp5dHcLYC4g-56" value="" style="endArrow=none;html=1;exitX=1;exitY=0.5;exitDx=0;exitDy=0;strokeWidth=4;startArrow=none;curved=1;" edge="1" parent="t5FLfHT6trp5dHcLYC4g-1" source="t5FLfHT6trp5dHcLYC4g-66" target="t5FLfHT6trp5dHcLYC4g-59">
          <mxGeometry width="50" height="50" relative="1" as="geometry">
            <mxPoint x="409" y="573" as="sourcePoint" />
            <mxPoint x="689" y="574" as="targetPoint" />
          </mxGeometry>
        </mxCell>
        <mxCell id="t5FLfHT6trp5dHcLYC4g-57" style="edgeStyle=orthogonalEdgeStyle;rounded=0;orthogonalLoop=1;jettySize=auto;html=1;endArrow=classicThin;endFill=1;strokeWidth=3;" edge="1" parent="t5FLfHT6trp5dHcLYC4g-1" source="t5FLfHT6trp5dHcLYC4g-59" target="t5FLfHT6trp5dHcLYC4g-64">
          <mxGeometry relative="1" as="geometry">
            <mxPoint x="502" y="640" as="targetPoint" />
            <Array as="points" />
          </mxGeometry>
        </mxCell>
        <mxCell id="t5FLfHT6trp5dHcLYC4g-58" value="pull merge" style="edgeLabel;html=1;align=center;verticalAlign=middle;resizable=0;points=[];" vertex="1" connectable="0" parent="t5FLfHT6trp5dHcLYC4g-57">
          <mxGeometry x="-0.18" y="-1" relative="1" as="geometry">
            <mxPoint x="1" y="-5" as="offset" />
          </mxGeometry>
        </mxCell>
        <mxCell id="t5FLfHT6trp5dHcLYC4g-59" value="" style="ellipse;whiteSpace=wrap;html=1;aspect=fixed;fillColor=#d5e8d4;strokeColor=#82b366;" vertex="1" parent="t5FLfHT6trp5dHcLYC4g-1">
          <mxGeometry x="519" y="564" width="20" height="20" as="geometry" />
        </mxCell>
        <mxCell id="t5FLfHT6trp5dHcLYC4g-60" value="" style="edgeStyle=orthogonalEdgeStyle;rounded=0;orthogonalLoop=1;jettySize=auto;html=1;strokeWidth=4;endArrow=none;endFill=0;curved=1;" edge="1" parent="t5FLfHT6trp5dHcLYC4g-1" source="t5FLfHT6trp5dHcLYC4g-48" target="t5FLfHT6trp5dHcLYC4g-64">
          <mxGeometry relative="1" as="geometry">
            <mxPoint x="509" y="670" as="targetPoint" />
            <mxPoint x="319" y="670" as="sourcePoint" />
          </mxGeometry>
        </mxCell>
        <mxCell id="t5FLfHT6trp5dHcLYC4g-61" value="feature/xx2" style="edgeLabel;html=1;align=center;verticalAlign=middle;resizable=0;points=[];" vertex="1" connectable="0" parent="t5FLfHT6trp5dHcLYC4g-60">
          <mxGeometry x="-0.5657" y="-1" relative="1" as="geometry">
            <mxPoint x="1" y="-11" as="offset" />
          </mxGeometry>
        </mxCell>
        <mxCell id="t5FLfHT6trp5dHcLYC4g-62" style="edgeStyle=orthogonalEdgeStyle;rounded=0;orthogonalLoop=1;jettySize=auto;html=1;entryX=0.5;entryY=1;entryDx=0;entryDy=0;curved=1;strokeWidth=5;" edge="1" parent="t5FLfHT6trp5dHcLYC4g-1" source="t5FLfHT6trp5dHcLYC4g-64" target="t5FLfHT6trp5dHcLYC4g-68">
          <mxGeometry relative="1" as="geometry" />
        </mxCell>
        <mxCell id="t5FLfHT6trp5dHcLYC4g-63" value="merge request&lt;br style=&quot;border-color: var(--border-color);&quot;&gt;with squash" style="edgeLabel;html=1;align=center;verticalAlign=middle;resizable=0;points=[];" vertex="1" connectable="0" parent="t5FLfHT6trp5dHcLYC4g-62">
          <mxGeometry x="0.2157" y="9" relative="1" as="geometry">
            <mxPoint x="9" y="3" as="offset" />
          </mxGeometry>
        </mxCell>
        <mxCell id="t5FLfHT6trp5dHcLYC4g-64" value="" style="ellipse;whiteSpace=wrap;html=1;aspect=fixed;fillColor=#dae8fc;strokeColor=#6c8ebf;" vertex="1" parent="t5FLfHT6trp5dHcLYC4g-1">
          <mxGeometry x="519" y="660" width="20" height="20" as="geometry" />
        </mxCell>
        <mxCell id="t5FLfHT6trp5dHcLYC4g-65" value="" style="endArrow=none;html=1;exitX=1;exitY=0.5;exitDx=0;exitDy=0;strokeWidth=4;startArrow=none;curved=1;" edge="1" parent="t5FLfHT6trp5dHcLYC4g-1" source="t5FLfHT6trp5dHcLYC4g-54" target="t5FLfHT6trp5dHcLYC4g-66">
          <mxGeometry width="50" height="50" relative="1" as="geometry">
            <mxPoint x="409" y="573" as="sourcePoint" />
            <mxPoint x="494" y="574" as="targetPoint" />
          </mxGeometry>
        </mxCell>
        <mxCell id="t5FLfHT6trp5dHcLYC4g-66" value="" style="ellipse;whiteSpace=wrap;html=1;aspect=fixed;fillColor=#d5e8d4;strokeColor=#82b366;" vertex="1" parent="t5FLfHT6trp5dHcLYC4g-1">
          <mxGeometry x="449" y="564" width="20" height="20" as="geometry" />
        </mxCell>
        <mxCell id="t5FLfHT6trp5dHcLYC4g-67" value="" style="endArrow=none;html=1;exitX=1;exitY=0.5;exitDx=0;exitDy=0;strokeWidth=4;startArrow=none;curved=1;" edge="1" parent="t5FLfHT6trp5dHcLYC4g-1" source="t5FLfHT6trp5dHcLYC4g-59" target="t5FLfHT6trp5dHcLYC4g-68">
          <mxGeometry width="50" height="50" relative="1" as="geometry">
            <mxPoint x="514" y="574" as="sourcePoint" />
            <mxPoint x="689" y="574" as="targetPoint" />
          </mxGeometry>
        </mxCell>
        <mxCell id="t5FLfHT6trp5dHcLYC4g-68" value="" style="ellipse;whiteSpace=wrap;html=1;aspect=fixed;fillColor=#d5e8d4;strokeColor=#82b366;" vertex="1" parent="t5FLfHT6trp5dHcLYC4g-1">
          <mxGeometry x="579" y="564" width="20" height="20" as="geometry" />
        </mxCell>
        <mxCell id="t5FLfHT6trp5dHcLYC4g-69" value="" style="endArrow=none;html=1;rounded=0;exitX=1;exitY=0.5;exitDx=0;exitDy=0;edgeStyle=orthogonalEdgeStyle;entryX=0;entryY=0.5;entryDx=0;entryDy=0;strokeWidth=4;" edge="1" parent="t5FLfHT6trp5dHcLYC4g-1" source="t5FLfHT6trp5dHcLYC4g-20" target="t5FLfHT6trp5dHcLYC4g-70">
          <mxGeometry width="50" height="50" relative="1" as="geometry">
            <mxPoint x="80" y="510" as="sourcePoint" />
            <mxPoint x="460" y="510" as="targetPoint" />
          </mxGeometry>
        </mxCell>
        <mxCell id="t5FLfHT6trp5dHcLYC4g-70" value="" style="ellipse;whiteSpace=wrap;html=1;aspect=fixed;fillColor=#fff2cc;strokeColor=#d6b656;" vertex="1" parent="t5FLfHT6trp5dHcLYC4g-1">
          <mxGeometry x="199" y="500" width="20" height="20" as="geometry" />
        </mxCell>
        <mxCell id="t5FLfHT6trp5dHcLYC4g-71" value="" style="edgeStyle=orthogonalEdgeStyle;rounded=0;orthogonalLoop=1;jettySize=auto;html=1;endArrow=none;endFill=0;strokeWidth=5;curved=1;exitX=1;exitY=0.5;exitDx=0;exitDy=0;" edge="1" parent="t5FLfHT6trp5dHcLYC4g-1" source="t5FLfHT6trp5dHcLYC4g-16" target="t5FLfHT6trp5dHcLYC4g-75">
          <mxGeometry relative="1" as="geometry">
            <mxPoint x="619" y="350" as="targetPoint" />
            <mxPoint x="469" y="410" as="sourcePoint" />
          </mxGeometry>
        </mxCell>
        <mxCell id="t5FLfHT6trp5dHcLYC4g-72" value="hotfix/xxx" style="edgeLabel;html=1;align=center;verticalAlign=middle;resizable=0;points=[];" vertex="1" connectable="0" parent="t5FLfHT6trp5dHcLYC4g-71">
          <mxGeometry x="-0.3277" y="2" relative="1" as="geometry">
            <mxPoint x="-10" y="-8" as="offset" />
          </mxGeometry>
        </mxCell>
        <mxCell id="t5FLfHT6trp5dHcLYC4g-73" style="edgeStyle=orthogonalEdgeStyle;rounded=0;orthogonalLoop=1;jettySize=auto;html=1;strokeWidth=4;curved=1;" edge="1" parent="t5FLfHT6trp5dHcLYC4g-1" source="t5FLfHT6trp5dHcLYC4g-75">
          <mxGeometry relative="1" as="geometry">
            <mxPoint x="629" y="350" as="targetPoint" />
          </mxGeometry>
        </mxCell>
        <mxCell id="t5FLfHT6trp5dHcLYC4g-74" value="merge request&lt;br style=&quot;border-color: var(--border-color);&quot;&gt;with squash" style="edgeLabel;html=1;align=center;verticalAlign=middle;resizable=0;points=[];" vertex="1" connectable="0" parent="t5FLfHT6trp5dHcLYC4g-73">
          <mxGeometry x="-0.0864" y="3" relative="1" as="geometry">
            <mxPoint x="43" as="offset" />
          </mxGeometry>
        </mxCell>
        <mxCell id="t5FLfHT6trp5dHcLYC4g-75" value="" style="ellipse;whiteSpace=wrap;html=1;aspect=fixed;fillColor=#f8cecc;strokeColor=#b85450;" vertex="1" parent="t5FLfHT6trp5dHcLYC4g-1">
          <mxGeometry x="588" y="400" width="20" height="20" as="geometry" />
        </mxCell>
        <mxCell id="t5FLfHT6trp5dHcLYC4g-76" value="" style="endArrow=none;html=1;rounded=0;exitX=1;exitY=0.5;exitDx=0;exitDy=0;edgeStyle=orthogonalEdgeStyle;entryX=0;entryY=0.5;entryDx=0;entryDy=0;strokeWidth=4;startArrow=none;" edge="1" parent="t5FLfHT6trp5dHcLYC4g-1" source="t5FLfHT6trp5dHcLYC4g-82" target="t5FLfHT6trp5dHcLYC4g-78">
          <mxGeometry width="50" height="50" relative="1" as="geometry">
            <mxPoint x="419" y="350" as="sourcePoint" />
            <mxPoint x="679" y="350" as="targetPoint" />
            <Array as="points" />
          </mxGeometry>
        </mxCell>
        <mxCell id="t5FLfHT6trp5dHcLYC4g-77" value="pull merge" style="edgeStyle=orthogonalEdgeStyle;rounded=0;orthogonalLoop=1;jettySize=auto;html=1;entryX=0.5;entryY=0;entryDx=0;entryDy=0;strokeWidth=3;endArrow=classicThin;endFill=1;" edge="1" parent="t5FLfHT6trp5dHcLYC4g-1" source="t5FLfHT6trp5dHcLYC4g-78" target="t5FLfHT6trp5dHcLYC4g-85">
          <mxGeometry relative="1" as="geometry">
            <mxPoint x="630" y="570" as="targetPoint" />
          </mxGeometry>
        </mxCell>
        <mxCell id="t5FLfHT6trp5dHcLYC4g-78" value="" style="ellipse;whiteSpace=wrap;html=1;aspect=fixed;fillColor=#e1d5e7;strokeColor=#9673a6;" vertex="1" parent="t5FLfHT6trp5dHcLYC4g-1">
          <mxGeometry x="619" y="340" width="20" height="20" as="geometry" />
        </mxCell>
        <mxCell id="t5FLfHT6trp5dHcLYC4g-79" value="" style="endArrow=none;html=1;rounded=0;exitX=1;exitY=0.5;exitDx=0;exitDy=0;edgeStyle=orthogonalEdgeStyle;entryX=0;entryY=0.5;entryDx=0;entryDy=0;strokeWidth=4;startArrow=none;" edge="1" parent="t5FLfHT6trp5dHcLYC4g-1" source="t5FLfHT6trp5dHcLYC4g-36" target="t5FLfHT6trp5dHcLYC4g-82">
          <mxGeometry width="50" height="50" relative="1" as="geometry">
            <mxPoint x="419" y="350" as="sourcePoint" />
            <mxPoint x="619" y="350" as="targetPoint" />
            <Array as="points" />
          </mxGeometry>
        </mxCell>
        <mxCell id="t5FLfHT6trp5dHcLYC4g-80" style="edgeStyle=orthogonalEdgeStyle;rounded=0;orthogonalLoop=1;jettySize=auto;html=1;entryX=0.5;entryY=0;entryDx=0;entryDy=0;strokeWidth=3;endArrow=classicThin;endFill=1;" edge="1" parent="t5FLfHT6trp5dHcLYC4g-1" source="t5FLfHT6trp5dHcLYC4g-82" target="t5FLfHT6trp5dHcLYC4g-16">
          <mxGeometry relative="1" as="geometry" />
        </mxCell>
        <mxCell id="t5FLfHT6trp5dHcLYC4g-81" value="checkout" style="edgeLabel;html=1;align=center;verticalAlign=middle;resizable=0;points=[];" vertex="1" connectable="0" parent="t5FLfHT6trp5dHcLYC4g-80">
          <mxGeometry x="-0.25" y="2" relative="1" as="geometry">
            <mxPoint as="offset" />
          </mxGeometry>
        </mxCell>
        <mxCell id="t5FLfHT6trp5dHcLYC4g-82" value="" style="ellipse;whiteSpace=wrap;html=1;aspect=fixed;fillColor=#e1d5e7;strokeColor=#9673a6;" vertex="1" parent="t5FLfHT6trp5dHcLYC4g-1">
          <mxGeometry x="449" y="340" width="20" height="20" as="geometry" />
        </mxCell>
        <mxCell id="t5FLfHT6trp5dHcLYC4g-83" value="临时分支" style="swimlane;startSize=0;" vertex="1" parent="t5FLfHT6trp5dHcLYC4g-1">
          <mxGeometry x="99" y="140" width="171" height="160" as="geometry" />
        </mxCell>
        <mxCell id="t5FLfHT6trp5dHcLYC4g-84" value="" style="endArrow=none;html=1;exitX=1;exitY=0.5;exitDx=0;exitDy=0;strokeWidth=4;startArrow=none;curved=1;" edge="1" parent="t5FLfHT6trp5dHcLYC4g-1" source="t5FLfHT6trp5dHcLYC4g-68" target="t5FLfHT6trp5dHcLYC4g-85">
          <mxGeometry width="50" height="50" relative="1" as="geometry">
            <mxPoint x="599" y="574" as="sourcePoint" />
            <mxPoint x="730" y="574" as="targetPoint" />
          </mxGeometry>
        </mxCell>
        <mxCell id="t5FLfHT6trp5dHcLYC4g-85" value="" style="ellipse;whiteSpace=wrap;html=1;aspect=fixed;fillColor=#d5e8d4;strokeColor=#82b366;" vertex="1" parent="t5FLfHT6trp5dHcLYC4g-1">
          <mxGeometry x="619" y="565" width="20" height="20" as="geometry" />
        </mxCell>
      </root>
    </mxGraphModel>
  </diagram>
</mxfile>
